<?xml version="1.0" encoding="iso-8859-1"?>
<!-- Uploaded to: SVG Repo, www.svgrepo.com, Generator: SVG Repo Mixer Tools -->
<svg fill="#4b5563" height="800px" width="800px" version="1.1" id="Layer_1" xmlns="http://www.w3.org/2000/svg" xmlns:xlink="http://www.w3.org/1999/xlink" 
	 viewBox="0 0 512 512" xml:space="preserve">
<g>
	<g>
		<path d="M156.096,224.023c-4.329-4.329-10.332-6.811-16.46-6.811s-12.133,2.482-16.462,6.811
			c-4.329,4.344-6.811,10.333-6.811,16.462s2.482,12.117,6.811,16.462c4.329,4.329,10.333,6.811,16.462,6.811
			s12.117-2.482,16.46-6.811c4.329-4.329,6.813-10.333,6.813-16.462S160.425,228.352,156.096,224.023z"/>
	</g>
</g>
<g>
	<g>
		<path d="M488.727,333.576H279.273v-47.898c2.43,0.861,5.033,1.353,7.758,1.353c12.853,0,23.273-10.42,23.273-23.273v-23.273
			c0-12.853-10.42-23.273-23.273-23.273c-3.339,0-6.507,0.715-9.379,1.983c-10.282-66.928-68.256-118.346-138.015-118.346H23.273
			C10.42,100.849,0,111.269,0,124.121v232.727c0,12.853,10.42,23.273,23.273,23.273H256h209.455v7.758
			c0,12.853,10.42,23.273,23.273,23.273c12.853,0,23.273-10.42,23.273-23.273v-31.03C512,343.996,501.58,333.576,488.727,333.576z
			 M232.727,333.576H46.545V147.394h93.091c51.33,0,93.091,41.761,93.091,93.091V333.576z"/>
	</g>
</g>
</svg>
