<?xml version="1.0" encoding="iso-8859-1"?>
<!-- Uploaded to: SVG Repo, www.svgrepo.com, Generator: SVG Repo Mixer Tools -->
<svg fill="#4b5563" height="30px" width="30px" version="1.1" id="Capa_1" xmlns="http://www.w3.org/2000/svg" xmlns:xlink="http://www.w3.org/1999/xlink" 
	 viewBox="0 0 490 490" xml:space="preserve">
<g>
	<path d="M245.005,232.32c-40.711,0-73.826,32.893-73.826,73.318c0,40.435,33.115,73.327,73.826,73.327
		c40.706,0,73.821-32.892,73.821-73.327C318.826,265.213,285.71,232.32,245.005,232.32z M245.005,358.116
		c-29.212,0-52.977-23.546-52.977-52.478s23.765-52.469,52.977-52.469c29.206,0,52.972,23.537,52.972,52.469
		S274.211,358.116,245.005,358.116z"/>
	<path d="M407.332,82.935V0h-63.631v20.849h42.782v62.058H315.34c-13.5,0-24.484,10.933-24.484,24.371
		c0,10.75-8.368,17.469-19.581,15.952c-20.762-3.013-42.064-2.424-62.898,1.761c-77.984,15.647-138.765,80.952-147.8,158.81
		c-6.159,53.088,10.116,103.991,45.256,143.855c63.32,71.833,149.235,62.088,154.336,61.691
		c95.627-7.543,170.533-89.971,170.533-187.66v-194.41C430.701,94.212,420.316,83.518,407.332,82.935z M409.852,301.688
		c0,86.888-66.472,160.184-151.322,166.872c-52.708,4.082-102.865-16.299-137.132-54.769
		c-31.33-35.182-45.577-80.494-40.115-127.588c8.007-68.99,61.957-126.884,131.192-140.771c10.781-2.158,30.354-5.279,55.818-1.577
		c24.261,3.528,43.413-13.417,43.413-36.577c0-1.944,1.629-3.522,3.635-3.522h90.877c2.006,0,3.635,1.578,3.635,3.522V301.688z"/>
</g>
</svg>
